<svg width="20" height="21" viewBox="0 0 20 21" fill="none" xmlns="http://www.w3.org/2000/svg">
<path d="M10 20.5C15.51 20.5 20 16.01 20 10.5C20 4.99 15.51 0.5 10 0.500001C4.49 0.500001 -1.35593e-06 4.99 -8.74228e-07 10.5C-3.92528e-07 16.01 4.49 20.5 10 20.5ZM10.75 14.5C10.75 14.91 10.41 15.25 10 15.25C9.59 15.25 9.25 14.91 9.25 14.5L9.25 9.5C9.25 9.09 9.59 8.75 10 8.75C10.41 8.75 10.75 9.09 10.75 9.5L10.75 14.5ZM9.08 6.12C9.13 5.99 9.2 5.89 9.29 5.79C9.39 5.7 9.5 5.63 9.62 5.58C9.74 5.53 9.87 5.5 10 5.5C10.13 5.5 10.26 5.53 10.38 5.58C10.5 5.63 10.61 5.7 10.71 5.79C10.8 5.89 10.87 5.99 10.92 6.12C10.97 6.24 11 6.37 11 6.5C11 6.63 10.97 6.76 10.92 6.88C10.87 7 10.8 7.11 10.71 7.21C10.61 7.3 10.5 7.37 10.38 7.42C10.14 7.52 9.86 7.52 9.62 7.42C9.5 7.37 9.39 7.3 9.29 7.21C9.2 7.11 9.13 7 9.08 6.88C9.03 6.76 9 6.63 9 6.5C9 6.37 9.03 6.24 9.08 6.12Z" fill="#F2E9D8" fill-opacity="0.7"/>
</svg>
