<svg width="146" height="65" viewBox="0 0 146 65" fill="none" xmlns="http://www.w3.org/2000/svg">
<g clip-path="url(#clip0_0_78)">
<path d="M31.5065 0.239332L16.89 38.7176H13.3568L0 0.239332H3.2336L4.0708 3.55137L15.0927 35.1662H15.3922L27.3742 3.66717L28.2729 0.239332H31.5065ZM43.5806 0.239332L43.3963 26.8514L43.5192 38.7176H40.4008L40.5851 27.0367L40.4008 0.239332H43.5806ZM67.3295 0C69.9666 0 72.6241 0.602188 75.3021 1.80656L74.7568 4.69398L74.1577 4.87155C73.0414 4.15098 71.8535 3.60026 70.5938 3.21939C69.3393 2.83852 68.1309 2.64808 66.9685 2.64808C65.2941 2.64808 63.8271 2.99807 62.5674 3.69805C61.3078 4.40318 60.3503 5.31675 59.6948 6.43878C59.0343 7.56595 58.704 8.71114 58.704 9.87434C58.704 11.1199 59.0624 12.2033 59.7793 13.1246C60.5013 14.0459 61.3897 14.8385 62.4445 15.5025C63.5045 16.1664 64.9331 16.9205 66.7304 17.7645C68.8503 18.8042 70.558 19.7358 71.8535 20.5593C73.1541 21.3828 74.2627 22.4482 75.1792 23.7555C76.0958 25.0577 76.5541 26.6327 76.5541 28.4804C76.5541 30.3693 76.0471 32.127 75.0333 33.7534C74.0143 35.3747 72.5754 36.6588 70.7167 37.6059C68.858 38.5478 66.7714 39.0187 64.4569 39.0187C62.8183 39.0187 61.1414 38.7871 59.426 38.3239C57.7055 37.8658 56.1463 37.1941 54.7484 36.3088L55.1094 33.1203L55.5319 32.935C56.8478 34.0982 58.3251 34.9732 59.9636 35.56C61.6022 36.1416 63.1793 36.4324 64.695 36.4324C66.4513 36.4324 67.99 36.0695 69.3111 35.3438C70.6271 34.6232 71.6435 33.6814 72.3604 32.5182C73.0824 31.3498 73.4434 30.1248 73.4434 28.8433C73.4434 27.5154 73.0721 26.3599 72.3297 25.3768C71.5923 24.3938 70.6962 23.5805 69.6414 22.9372C68.5815 22.299 67.1119 21.5166 65.2327 20.5902C63.1588 19.5866 61.4819 18.6833 60.2018 17.8804C58.9216 17.0774 57.8438 16.0352 56.9682 14.7536C56.0874 13.4669 55.6471 11.9202 55.6471 10.1137C55.6471 8.26593 56.1361 6.57002 57.1141 5.02595C58.0921 3.48188 59.4721 2.25692 61.254 1.35106C63.0308 0.450354 65.056 0 67.3295 0ZM114.09 0.239332L114.028 19.8722V24.5044C114.11 29.1212 112.933 32.6957 110.495 35.228C108.058 37.7551 104.584 39.0187 100.073 39.0187C95.6792 39.0187 92.3124 37.7937 89.9724 35.3438C87.6374 32.8939 86.4904 29.3605 86.5314 24.7437V0.239332H89.5883L89.4654 24.4427C89.4245 28.2977 90.3231 31.2288 92.1614 33.2361C93.9996 35.2434 96.6956 36.2471 100.249 36.2471C103.803 36.2471 106.509 35.264 108.368 33.2979C110.227 31.3318 111.135 28.4804 111.094 24.7437L110.972 0.239332H114.09ZM136.525 0C139.157 0 141.812 0.602188 144.49 1.80656L143.953 4.69398L143.354 4.87155C142.232 4.15098 141.044 3.60026 139.79 3.21939C138.53 2.83852 137.322 2.64808 136.164 2.64808C134.485 2.64808 133.015 2.99807 131.756 3.69805C130.501 4.40318 129.544 5.31675 128.883 6.43878C128.223 7.56595 127.892 8.71114 127.892 9.87434C127.892 11.1199 128.253 12.2033 128.975 13.1246C129.692 14.0459 130.581 14.8385 131.64 15.5025C132.7 16.1664 134.129 16.9205 135.926 17.7645C138.041 18.8042 139.746 19.7358 141.042 20.5593C142.342 21.3828 143.451 22.4482 144.367 23.7555C145.289 25.0577 145.75 26.6327 145.75 28.4804C145.75 30.3693 145.241 32.127 144.222 33.7534C143.203 35.3747 141.764 36.6588 139.905 37.6059C138.051 38.5478 135.965 39.0187 133.645 39.0187C132.007 39.0187 130.33 38.7871 128.614 38.3239C126.899 37.8658 125.342 37.1941 123.944 36.3088L124.298 33.1203L124.72 32.935C126.036 34.0982 127.513 34.9732 129.152 35.56C130.79 36.1416 132.368 36.4324 133.883 36.4324C135.645 36.4324 137.183 36.0695 138.499 35.3438C139.815 34.6232 140.834 33.6814 141.556 32.5182C142.273 31.3498 142.632 30.1248 142.632 28.8433C142.632 27.5154 142.263 26.3599 141.526 25.3768C140.788 24.3938 139.89 23.5805 138.83 22.9372C137.77 22.299 136.303 21.5166 134.429 20.5902C132.35 19.5866 130.67 18.6833 129.39 17.8804C128.115 17.0774 127.037 16.0352 126.156 14.7536C125.281 13.4669 124.843 11.9202 124.843 10.1137C124.843 8.26593 125.332 6.57002 126.31 5.02595C127.288 3.48188 128.665 2.25692 130.442 1.35106C132.219 0.450354 134.247 0 136.525 0Z" fill="white"/>
<g clip-path="url(#clip1_0_78)">
<path d="M14.3528 51.4738L18.1165 62.3224H17.2102L16.972 61.4042L16.1578 59.0663L13.5924 59.0277L11.2727 59.0663L10.397 61.3734L10.1435 62.3224H9.22949L13.3542 51.4738H14.3528ZM13.6922 58.3024L15.889 58.2793L13.8766 52.4923H13.7767L11.5799 58.2793L13.6922 58.3024ZM32.365 51.4043C33.8961 51.4043 35.0713 51.8467 35.8906 52.7315C36.7048 53.6162 37.1119 54.8842 37.1119 56.5354C37.1119 58.4233 36.6792 59.8739 35.8138 60.8873C34.9433 61.9006 33.6989 62.4073 32.0808 62.4073C31.6609 62.4073 31.1283 62.3996 30.4831 62.3842C29.8328 62.3636 29.2388 62.343 28.7011 62.3224L28.7472 59.0277L28.7011 51.4738L32.365 51.4043ZM32.196 61.6589C33.4915 61.6589 34.485 61.2345 35.1763 60.3857C35.8727 59.537 36.2209 58.305 36.2209 56.6898C36.2209 55.1929 35.888 54.0638 35.2223 53.3024C34.5566 52.536 33.5863 52.1528 32.3112 52.1528C31.9988 52.1528 31.5764 52.1605 31.0438 52.1759C30.5164 52.1965 30.0325 52.2171 29.5921 52.2376L29.546 58.9814L29.5767 61.5585C30.0376 61.5791 30.5138 61.6023 31.0054 61.628C31.497 61.6486 31.8939 61.6589 32.196 61.6589ZM55.247 51.4738L51.1222 62.3224H50.1237L46.3599 51.4738H47.2663L47.5044 52.4074L50.6153 61.3193H50.6998L54.0794 52.446L54.3329 51.4738H55.247ZM66.446 51.4738L66.3999 58.9814L66.4307 62.3224H65.555L65.6011 59.0277L65.555 51.4738H66.446ZM80.9479 51.4043C81.6904 51.4043 82.4406 51.5741 83.1985 51.9136L83.0449 52.7315L82.8759 52.7855C82.5584 52.5797 82.223 52.4228 81.8697 52.3148C81.5163 52.2068 81.1758 52.1528 80.8481 52.1528C80.3719 52.1528 79.9571 52.2531 79.6037 52.4537C79.2504 52.6492 78.979 52.9064 78.7896 53.2253C78.6052 53.5391 78.513 53.8606 78.513 54.1898C78.513 54.5396 78.6154 54.8456 78.8203 55.108C79.02 55.3703 79.2709 55.5941 79.573 55.7793C79.87 55.9645 80.272 56.1754 80.779 56.412C81.3781 56.7103 81.8594 56.9752 82.223 57.2067C82.5917 57.4382 82.9041 57.7366 83.1601 58.1018C83.4212 58.4721 83.5518 58.9171 83.5518 59.4366C83.5518 59.9665 83.4085 60.4603 83.1217 60.9181C82.8349 61.3811 82.4278 61.7437 81.9004 62.0061C81.3781 62.2736 80.7892 62.4073 80.1337 62.4073C79.6729 62.4073 79.2018 62.343 78.7204 62.2144C78.2339 62.0807 77.7936 61.8903 77.3993 61.6434L77.4991 60.7407L77.622 60.6944C77.9907 61.0236 78.4055 61.2679 78.8664 61.4274C79.3324 61.592 79.7778 61.6743 80.2029 61.6743C80.6996 61.6743 81.1348 61.574 81.5087 61.3734C81.8773 61.1676 82.1641 60.9001 82.3689 60.5709C82.5686 60.2468 82.6685 59.9022 82.6685 59.537C82.6685 59.1666 82.5661 58.8425 82.3613 58.5647C82.1513 58.287 81.8978 58.0581 81.6008 57.878C81.2987 57.6928 80.8839 57.4716 80.3565 57.2144C79.7727 56.9315 79.2991 56.6769 78.9355 56.4506C78.577 56.2242 78.2724 55.9284 78.0214 55.5632C77.7757 55.2031 77.6527 54.7685 77.6527 54.2592C77.6527 53.7397 77.791 53.2613 78.0675 52.824C78.344 52.3868 78.7332 52.0422 79.2351 51.7901C79.7369 51.5329 80.3078 51.4043 80.9479 51.4043ZM98.2535 51.3734C99.7077 51.3734 100.822 51.8338 101.595 52.7546C102.373 53.6805 102.762 54.9974 102.762 56.7052C102.762 58.5467 102.353 59.9613 101.533 60.949C100.709 61.9315 99.5362 62.4227 98.0154 62.4227C96.5867 62.4227 95.4831 61.9495 94.7048 61.003C93.9264 60.0616 93.5373 58.7139 93.5373 56.9598C93.5373 55.1697 93.9444 53.7911 94.7586 52.824C95.5779 51.857 96.7428 51.3734 98.2535 51.3734ZM98.1997 52.1219C96.9605 52.1219 96.0208 52.5231 95.3807 53.3256C94.7355 54.1281 94.4129 55.3112 94.4129 56.8749C94.4129 58.4696 94.7227 59.6733 95.3423 60.486C95.9619 61.3039 96.876 61.7129 98.0845 61.7129C99.3237 61.7129 100.263 61.2988 100.903 60.4706C101.549 59.6476 101.871 58.4361 101.871 56.8364C101.871 55.2777 101.561 54.1023 100.942 53.3102C100.322 52.518 99.4082 52.1219 98.1997 52.1219ZM117.349 57.878C118.194 59.2463 119.167 60.6609 120.267 62.1218V62.2376C120.088 62.3301 119.835 62.4047 119.507 62.4613L119.376 62.3919C118.281 60.8178 117.356 59.3801 116.604 58.0786H114.476V58.9814L114.507 62.3224H113.631L113.677 59.0277L113.631 51.4738L116.504 51.4583C117.528 51.4583 118.316 51.7181 118.87 52.2376C119.423 52.7572 119.699 53.5108 119.699 54.4984C119.699 55.2906 119.494 55.9773 119.085 56.5586C118.68 57.1399 118.101 57.5797 117.349 57.878ZM114.522 52.2376L114.491 57.2993L116.688 57.3302C117.374 57.1399 117.899 56.8081 118.263 56.3348C118.621 55.8667 118.8 55.27 118.8 54.5447C118.8 53.7885 118.596 53.215 118.186 52.824C117.771 52.4331 117.177 52.2273 116.404 52.2068L114.522 52.2376ZM133.571 58.2793L133.556 59.0817L133.587 62.3224H132.711L132.742 59.0817L132.726 58.3178L129.308 51.4738H130.291L130.491 51.9984L133.133 57.2607H133.233L136.106 52.0216L136.321 51.4738H137.289L133.571 58.2793Z" fill="white"/>
</g>
</g>
<defs>
<clipPath id="clip0_0_78">
<rect width="145.75" height="64.7778" fill="white"/>
</clipPath>
<clipPath id="clip1_0_78">
<rect width="128.059" height="11.0879" fill="white" transform="translate(9.22949 51.3734)"/>
</clipPath>
</defs>
</svg>
