<svg width="24" height="25" viewBox="0 0 24 25" fill="none" xmlns="http://www.w3.org/2000/svg">
<path d="M16 2.5H8C4 2.5 2 4.5 2 8.5V21.5C2 22.05 2.45 22.5 3 22.5H16C20 22.5 22 20.5 22 16.5V8.5C22 4.5 20 2.5 16 2.5ZM14 15.75H7C6.59 15.75 6.25 15.41 6.25 15C6.25 14.59 6.59 14.25 7 14.25H14C14.41 14.25 14.75 14.59 14.75 15C14.75 15.41 14.41 15.75 14 15.75ZM17 10.75H7C6.59 10.75 6.25 10.41 6.25 10C6.25 9.59 6.59 9.25 7 9.25H17C17.41 9.25 17.75 9.59 17.75 10C17.75 10.41 17.41 10.75 17 10.75Z" fill="white"/>
</svg>
